<svg width="54" height="56" viewBox="0 0 54 56" fill="none" xmlns="http://www.w3.org/2000/svg">
<g clip-path="url(#clip0)" filter="url(#filter0_d)">
<path d="M18.0121 21.1766C14.0209 21.1766 10.7789 24.4109 10.7789 28.4098C10.7866 32.401 14.0209 35.643 18.0198 35.643C22.011 35.6506 25.253 32.4087 25.253 28.4098C25.253 24.4109 22.0034 21.1766 18.0121 21.1766ZM18.0121 27.6452C19.4037 27.6452 20.5277 28.7691 20.5277 30.1607C20.543 31.2694 19.8166 32.2481 18.7462 32.5616V32.791C18.7462 33.2192 18.4021 33.5632 17.9816 33.5632C17.561 33.5632 17.2169 33.2268 17.2169 32.8063V32.5539C16.1924 32.2099 15.4966 31.2388 15.4966 30.1684C15.4966 29.7478 15.8406 29.4038 16.2612 29.4038C16.6817 29.4038 17.0258 29.7478 17.0258 30.1684C17.0258 30.7189 17.4616 31.1547 18.0121 31.1547C18.5627 31.1547 18.9985 30.7189 18.9985 30.1684C18.9985 29.6178 18.555 29.1744 18.0121 29.1744C16.934 29.1744 15.9706 28.4862 15.6266 27.4616C15.1907 26.1542 15.9018 24.7243 17.2169 24.2809V23.631C17.2169 23.2104 17.561 22.8663 17.9816 22.8663C18.4021 22.8663 18.7462 23.2104 18.7462 23.631V24.2579C19.8166 24.5638 20.543 25.5501 20.5277 26.6588C20.5277 27.0793 20.1836 27.4234 19.7631 27.4234C19.3426 27.4234 18.9985 27.0793 18.9985 26.6588C18.9985 26.1159 18.555 25.6725 18.0121 25.6725C17.4693 25.6725 17.0258 26.1159 17.0258 26.6588C17.0258 27.2017 17.4693 27.6452 18.0121 27.6452Z" fill="#3FA6FF"/>
<path d="M36.294 21.1842C32.3027 21.1842 29.0608 24.4185 29.0608 28.4174C29.0608 32.4087 32.2951 35.6506 36.294 35.6506C40.2929 35.6506 43.5272 32.4087 43.5272 28.4174C43.5272 24.4261 40.2929 21.1842 36.294 21.1842ZM38.0679 25.8866H38.8784C39.2989 25.8866 39.643 26.2306 39.643 26.6512C39.643 27.0717 39.2989 27.4158 38.8784 27.4158H38.0679C37.9455 27.9357 37.6779 28.4021 37.2956 28.7691C36.8369 29.2279 36.2405 29.5261 35.5982 29.6178L37.9303 31.8276L37.9379 31.8352C38.2437 32.1258 38.2514 32.6075 37.9608 32.9133C37.6703 33.2192 37.1886 33.2268 36.8827 32.9363L33.182 29.4343C33.0291 29.2891 32.945 29.0903 32.945 28.8838C32.945 28.4556 33.2814 28.1039 33.7096 28.1039H35.1853C35.5753 28.1039 35.9499 27.951 36.2175 27.6834C36.294 27.5993 36.3628 27.5075 36.424 27.4158H33.7096C33.2891 27.4158 32.945 27.0717 32.945 26.6512C32.945 26.2306 33.2891 25.8866 33.7096 25.8866H36.424C36.164 25.5042 35.7052 25.1984 35.1853 25.1984H33.7096C33.2891 25.1984 32.945 24.8543 32.945 24.4338C32.945 24.0133 33.2891 23.6692 33.7096 23.6692H38.886C39.3065 23.6692 39.6506 24.0133 39.6506 24.4338C39.6506 24.8543 39.3065 25.1984 38.8784 25.1984H37.785C37.9073 25.4278 37.9991 25.6572 38.0679 25.8866Z" fill="#3FA6FF"/>
<path d="M36.3551 14.1651L33.312 11.1296C33.0138 10.8314 32.5321 10.8314 32.2339 11.1296C31.9357 11.4354 31.9357 11.9171 32.2339 12.223L33.9619 13.9586H20.3442C18.0274 13.9586 16.1541 15.8243 16.1465 18.1411C16.1465 18.5616 16.4829 18.8904 16.9034 18.8904C16.9034 18.8904 16.9034 18.8904 16.9111 18.8904C17.324 18.898 17.6681 18.5616 17.6757 18.1487V18.1411C17.6757 16.673 18.8685 15.4802 20.3365 15.4879H33.9619L32.2339 17.2006C31.9357 17.4988 31.9357 17.9805 32.2339 18.2787C32.5321 18.5769 33.0138 18.5769 33.312 18.2787L36.3551 15.2508C36.6533 14.9526 36.6533 14.4709 36.3551 14.1651Z" fill="#3FA6FF"/>
<path d="M37.4103 37.9292C36.9898 37.9215 36.6457 38.2579 36.6381 38.6708V38.6785C36.6381 40.1465 35.4453 41.3393 33.9772 41.3317H20.3519L22.0799 39.6189C22.3781 39.3284 22.3781 38.8467 22.0875 38.5485C22.0875 38.5485 22.0875 38.5485 22.0799 38.5408C21.7817 38.2426 21.3 38.2426 21.0018 38.5408L17.9586 41.5687C17.6604 41.8669 17.6604 42.3563 17.9586 42.6545L21.0018 45.6823C21.3 45.9805 21.7817 45.9805 22.0799 45.6823C22.3781 45.3765 22.3781 44.8948 22.0799 44.5889L20.3519 42.8609H33.9696C36.2863 42.8609 38.1596 40.9952 38.1673 38.6785C38.1673 38.2732 37.8308 37.9292 37.4103 37.9292Z" fill="#3FA6FF"/>
</g>
<defs>
<filter id="filter0_d" x="-0.346924" y="0.905945" width="55" height="55" filterUnits="userSpaceOnUse" color-interpolation-filters="sRGB">
<feFlood flood-opacity="0" result="BackgroundImageFix"/>
<feColorMatrix in="SourceAlpha" type="matrix" values="0 0 0 0 0 0 0 0 0 0 0 0 0 0 0 0 0 0 127 0"/>
<feOffset/>
<feGaussianBlur stdDeviation="5"/>
<feColorMatrix type="matrix" values="0 0 0 0 0.247059 0 0 0 0 0.65098 0 0 0 0 1 0 0 0 0.8 0"/>
<feBlend mode="normal" in2="BackgroundImageFix" result="effect1_dropShadow"/>
<feBlend mode="normal" in="SourceGraphic" in2="effect1_dropShadow" result="shape"/>
</filter>
<clipPath id="clip0">
<rect width="35" height="35" fill="white" transform="translate(9.65308 10.9059)"/>
</clipPath>
</defs>
</svg>
