<svg width="56" height="55" viewBox="0 0 56 55" fill="none" xmlns="http://www.w3.org/2000/svg">
<g clip-path="url(#clip0)" filter="url(#filter0_d)">
<path d="M20.1295 31.6856H18.6749V42.1742H20.1295V31.6856Z" fill="#3FA6FF"/>
<path d="M14.0814 38.2697H12.6268V42.1742H14.0814V38.2697Z" fill="#3FA6FF"/>
<path d="M40.0732 10.5324C39.9277 10.3945 39.7363 10.318 39.5296 10.318H34.293C33.8719 10.3333 33.535 10.6855 33.5504 11.1065C33.5657 11.5123 33.8872 11.8415 34.293 11.8492L37.6845 11.8339L29.4009 20.1252L26.4993 17.2236C26.2007 16.925 25.7184 16.925 25.4198 17.2236L10.7128 31.9306C10.4066 32.2215 10.3989 32.7115 10.6975 33.01C10.9961 33.3086 11.4784 33.3239 11.777 33.0254C11.7846 33.0254 11.7923 33.0177 11.8 33.01L25.9634 18.8466L28.8573 21.7482C29.1559 22.0468 29.6382 22.0468 29.9368 21.7482L38.764 12.921L38.7564 16.2972C38.7564 16.7183 39.0932 17.0552 39.5143 17.0552C39.5143 17.0552 39.5143 17.0552 39.522 17.0552C39.943 17.0552 40.2875 16.7183 40.2875 16.2972L40.2952 11.0606C40.2952 10.8616 40.211 10.6702 40.0732 10.5324Z" fill="#3FA6FF"/>
<path d="M24.7231 29.9247V37.7337C25.1671 37.1672 25.6571 36.639 26.1777 36.149V29.9247H24.7231Z" fill="#3FA6FF"/>
<path d="M30.6947 25.4843V32.6809C31.2306 32.4282 31.69 32.2138 32.1493 32.0301V25.4843H30.6947Z" fill="#3FA6FF"/>
<path d="M36.6663 21.5033V31.3947C37.1562 31.4406 37.6462 31.5325 38.1209 31.6626V21.5033H36.6663Z" fill="#3FA6FF"/>
<path d="M38.5496 33.3852C37.6998 33.0713 36.8117 32.8952 35.9083 32.8646C35.9007 32.8646 35.893 32.8646 35.8853 32.8646C35.8318 32.8646 35.7705 32.8646 35.7016 32.8646C34.8441 32.8722 33.9943 33.0177 33.1752 33.2857C32.2029 33.6072 31.2688 34.0589 30.4114 34.6254C29.3702 35.3068 28.3902 36.0877 27.5021 36.9682C26.9509 37.5041 26.4227 38.0783 25.9327 38.6754C26.4609 39.3185 27.0275 39.931 27.6246 40.5052C31.0468 43.8049 33.9101 44.4939 35.7093 44.4939C40.3181 44.4939 44.2992 40.1147 45.4782 38.6678C44.5518 37.5423 41.8799 34.5872 38.5496 33.3852ZM35.7093 43.7666C32.8995 43.7666 30.6181 41.4851 30.6181 38.6754C30.6181 35.8657 32.8995 33.5842 35.7093 33.5842C38.519 33.5919 40.8004 35.8657 40.8004 38.6754C40.8004 41.4851 38.519 43.7666 35.7093 43.7666Z" fill="#3FA6FF"/>
<path d="M35.7093 35.1154C33.7417 35.1154 32.1493 36.7079 32.1493 38.6754C32.1493 40.643 33.7417 42.2354 35.7093 42.2354C37.6768 42.2354 39.2693 40.643 39.2693 38.6754C39.2693 36.7079 37.6768 35.1154 35.7093 35.1154Z" fill="#3FA6FF"/>
<path d="M24.7231 39.6248V42.1742H26.1777V41.2095C25.6571 40.7195 25.1671 40.1913 24.7231 39.6248Z" fill="#3FA6FF"/>
</g>
<defs>
<filter id="filter0_d" x="0.47821" y="-0.0940552" width="55" height="55" filterUnits="userSpaceOnUse" color-interpolation-filters="sRGB">
<feFlood flood-opacity="0" result="BackgroundImageFix"/>
<feColorMatrix in="SourceAlpha" type="matrix" values="0 0 0 0 0 0 0 0 0 0 0 0 0 0 0 0 0 0 127 0"/>
<feOffset/>
<feGaussianBlur stdDeviation="5"/>
<feColorMatrix type="matrix" values="0 0 0 0 0.247059 0 0 0 0 0.65098 0 0 0 0 1 0 0 0 0.8 0"/>
<feBlend mode="normal" in2="BackgroundImageFix" result="effect1_dropShadow"/>
<feBlend mode="normal" in="SourceGraphic" in2="effect1_dropShadow" result="shape"/>
</filter>
<clipPath id="clip0">
<rect width="35" height="35" fill="white" transform="translate(10.4782 9.90594)"/>
</clipPath>
</defs>
</svg>
