<svg width="56" height="49" viewBox="0 0 56 49" fill="none" xmlns="http://www.w3.org/2000/svg">
<g clip-path="url(#clip0)" filter="url(#filter0_d)">
<path d="M43.9633 30.21C43.6687 30.5671 43.3205 30.8886 42.9366 31.1475V35.1475H43.4366C44.4901 35.1475 45.3383 34.2993 45.3473 33.2546V28.4243L43.9633 30.21Z" fill="#3FA6FF"/>
<path d="M35.5258 21.6654H40.6776C40.8294 21.6654 40.9901 21.6475 41.1508 21.6118V16.5046C41.1508 15.4511 40.2937 14.6118 39.249 14.6118H12.258C11.2044 14.6118 10.3562 15.46 10.3473 16.5046V36.9779C10.3562 38.0314 11.2044 38.8886 12.258 38.8975H39.249C40.3026 38.8886 41.1508 38.0314 41.1508 36.9779L41.1419 31.7904C40.9901 31.8082 40.8294 31.8261 40.6687 31.835H35.5258C32.7223 31.8261 30.4455 29.5493 30.4455 26.7457C30.4455 23.9421 32.7223 21.6654 35.5258 21.6654Z" fill="#3FA6FF"/>
<path d="M43.4366 10.8618H16.4455C15.3919 10.8707 14.5437 11.7279 14.5437 12.7814V12.8261H39.2491C41.2848 12.8261 42.9366 14.4689 42.9366 16.5046V20.2368L45.3473 17.1296V12.7814C45.3383 11.7279 44.4901 10.8707 43.4366 10.8618Z" fill="#3FA6FF"/>
<path d="M45.3383 20.0493L43.9544 21.835C43.5526 22.3529 43.0348 22.7725 42.4455 23.0493C41.8919 23.3171 41.2848 23.4511 40.6687 23.4511H35.5258C33.7044 23.46 32.2312 24.9332 32.2312 26.7546C32.2312 28.5761 33.7044 30.0493 35.5258 30.0582H40.6776C41.4098 30.0493 42.1062 29.71 42.5526 29.1296L45.3473 25.5046L45.3383 20.0493ZM37.5258 27.6475H35.383C34.8919 27.6475 34.4901 27.2457 34.4901 26.7546C34.4901 26.2636 34.8919 25.8618 35.383 25.8618H37.5258C38.0169 25.8618 38.4187 26.2636 38.4187 26.7546C38.4187 27.2457 38.0169 27.6475 37.5258 27.6475Z" fill="#3FA6FF"/>
</g>
<defs>
<filter id="filter0_d" x="0.34726" y="-2.62036" width="55" height="55" filterUnits="userSpaceOnUse" color-interpolation-filters="sRGB">
<feFlood flood-opacity="0" result="BackgroundImageFix"/>
<feColorMatrix in="SourceAlpha" type="matrix" values="0 0 0 0 0 0 0 0 0 0 0 0 0 0 0 0 0 0 127 0"/>
<feOffset/>
<feGaussianBlur stdDeviation="5"/>
<feColorMatrix type="matrix" values="0 0 0 0 0.247059 0 0 0 0 0.65098 0 0 0 0 1 0 0 0 0.8 0"/>
<feBlend mode="normal" in2="BackgroundImageFix" result="effect1_dropShadow"/>
<feBlend mode="normal" in="SourceGraphic" in2="effect1_dropShadow" result="shape"/>
</filter>
<clipPath id="clip0">
<rect width="35" height="35" fill="white" transform="translate(10.3473 7.37964)"/>
</clipPath>
</defs>
</svg>
