<svg width="36" height="36" viewBox="0 0 36 36" fill="none" xmlns="http://www.w3.org/2000/svg">
<g clip-path="url(#clip0)">
<path d="M9.01212 10.6503C5.02085 10.6503 1.77891 13.8846 1.77891 17.8835C1.78655 21.8747 5.02085 25.1167 9.01976 25.1167C13.011 25.1243 16.253 21.8824 16.253 17.8835C16.253 13.8846 13.0034 10.6503 9.01212 10.6503ZM9.01212 17.1189C10.4037 17.1189 11.5277 18.2428 11.5277 19.6344C11.543 20.7431 10.8166 21.7218 9.74614 22.0353V22.2647C9.74614 22.6929 9.40207 23.0369 8.98153 23.0369C8.561 23.0369 8.21692 22.7005 8.21692 22.28V22.0276C7.19234 21.6836 6.49655 20.7125 6.49655 19.6421C6.49655 19.2215 6.84062 18.8775 7.26116 18.8775C7.68169 18.8775 8.02577 19.2215 8.02577 19.6421C8.02577 20.1926 8.4616 20.6284 9.01212 20.6284C9.56263 20.6284 9.99846 20.1926 9.99846 19.6421C9.99846 19.0915 9.55499 18.6481 9.01212 18.6481C7.93402 18.6481 6.97061 17.9599 6.62653 16.9353C6.19071 15.6279 6.90179 14.198 8.21692 13.7546V13.1047C8.21692 12.6841 8.561 12.34 8.98153 12.34C9.40207 12.34 9.74614 12.6841 9.74614 13.1047V13.7316C10.8166 14.0375 11.543 15.0238 11.5277 16.1325C11.5277 16.553 11.1836 16.8971 10.7631 16.8971C10.3425 16.8971 9.99846 16.553 9.99846 16.1325C9.99846 15.5896 9.55499 15.1462 9.01212 15.1462C8.46924 15.1462 8.02577 15.5896 8.02577 16.1325C8.02577 16.6754 8.46924 17.1189 9.01212 17.1189Z" fill="#757AAE"/>
<path d="M27.2939 10.6579C23.3027 10.6579 20.0607 13.8922 20.0607 17.8911C20.0607 21.8824 23.295 25.1243 27.2939 25.1243C31.2928 25.1243 34.5271 21.8824 34.5271 17.8911C34.5271 13.8998 31.2928 10.6579 27.2939 10.6579ZM29.0678 15.3602H29.8783C30.2988 15.3602 30.6429 15.7043 30.6429 16.1249C30.6429 16.5454 30.2988 16.8895 29.8783 16.8895H29.0678C28.9455 17.4094 28.6779 17.8758 28.2956 18.2428C27.8368 18.7016 27.2404 18.9998 26.5981 19.0915L28.9302 21.3013L28.9378 21.3089C29.2437 21.5995 29.2513 22.0812 28.9608 22.387C28.6702 22.6929 28.1885 22.7005 27.8827 22.4099L24.182 18.908C24.029 18.7628 23.9449 18.564 23.9449 18.3575C23.9449 17.9293 24.2814 17.5776 24.7096 17.5776H26.1852C26.5752 17.5776 26.9499 17.4247 27.2175 17.1571C27.2939 17.073 27.3627 16.9812 27.4239 16.8895H24.7096C24.289 16.8895 23.9449 16.5454 23.9449 16.1249C23.9449 15.7043 24.289 15.3602 24.7096 15.3602H27.4239C27.1639 14.9779 26.7052 14.6721 26.1852 14.6721H24.7096C24.289 14.6721 23.9449 14.328 23.9449 13.9075C23.9449 13.487 24.289 13.1429 24.7096 13.1429H29.886C30.3065 13.1429 30.6506 13.487 30.6506 13.9075C30.6506 14.328 30.3065 14.6721 29.8783 14.6721H28.7849C28.9073 14.9015 28.999 15.1309 29.0678 15.3602Z" fill="#757AAE"/>
<path d="M27.3551 3.63879L24.3119 0.603287C24.0137 0.305089 23.532 0.305089 23.2338 0.603287C22.9356 0.909131 22.9356 1.39083 23.2338 1.69668L24.9618 3.43234H11.3442C9.0274 3.43234 7.15411 5.29799 7.14646 7.61476C7.14646 8.03529 7.48289 8.36407 7.90342 8.36407C7.90342 8.36407 7.90342 8.36407 7.91107 8.36407C8.32396 8.37172 8.66803 8.03529 8.67568 7.6224V7.61476C8.67568 6.14671 9.86847 4.95392 11.3365 4.96156H24.9618L23.2338 6.67429C22.9356 6.97248 22.9356 7.45419 23.2338 7.75239C23.532 8.05058 24.0137 8.05058 24.3119 7.75239L27.3551 4.72453C27.6533 4.42633 27.6533 3.94463 27.3551 3.63879Z" fill="#757AAE"/>
<path d="M28.4103 27.4028C27.9897 27.3952 27.6457 27.7316 27.638 28.1445V28.1522C27.638 29.6202 26.4452 30.813 24.9772 30.8054H11.3518L13.0798 29.0926C13.378 28.8021 13.378 28.3204 13.0875 28.0222C13.0875 28.0222 13.0875 28.0222 13.0798 28.0145C12.7816 27.7163 12.2999 27.7163 12.0017 28.0145L8.95859 31.0424C8.66039 31.3406 8.66039 31.8299 8.95859 32.1281L12.0017 35.156C12.2999 35.4542 12.7816 35.4542 13.0798 35.156C13.378 34.8502 13.378 34.3684 13.0798 34.0626L11.3518 32.3346H24.9695C27.2863 32.3346 29.1596 30.4689 29.1672 28.1522C29.1672 27.7469 28.8308 27.4028 28.4103 27.4028Z" fill="#757AAE"/>
</g>
<defs>
<clipPath id="clip0">
<rect width="35" height="35" fill="white" transform="translate(0.653015 0.379639)"/>
</clipPath>
</defs>
</svg>
