<svg width="35" height="36" viewBox="0 0 35 36" fill="none" xmlns="http://www.w3.org/2000/svg">
<g clip-path="url(#clip0)">
<path d="M9.65134 22.1593H8.19672V32.6479H9.65134V22.1593Z" fill="#757AAE"/>
<path d="M3.60318 28.7434H2.14856V32.6479H3.60318V28.7434Z" fill="#757AAE"/>
<path d="M29.5949 1.00604C29.4495 0.868235 29.2581 0.791676 29.0514 0.791676H23.8147C23.3937 0.806987 23.0568 1.15916 23.0721 1.58023C23.0874 1.98599 23.409 2.3152 23.8147 2.32285L27.2063 2.30754L18.9226 10.5989L16.021 7.69729C15.7225 7.39871 15.2401 7.39871 14.9416 7.69729L0.234574 22.4043C-0.0716618 22.6952 -0.0793176 23.1852 0.219262 23.4837C0.517842 23.7823 1.00016 23.7976 1.29874 23.4991C1.3064 23.4991 1.31406 23.4914 1.32171 23.4837L15.4851 9.32034L18.379 12.2219C18.6776 12.5205 19.16 12.5205 19.4585 12.2219L28.2858 3.39468L28.2781 6.77093C28.2781 7.192 28.615 7.52886 29.0361 7.52886C29.0361 7.52886 29.0361 7.52886 29.0437 7.52886C29.4648 7.52886 29.8093 7.192 29.8093 6.77093L29.817 1.5343C29.817 1.33524 29.7327 1.14385 29.5949 1.00604Z" fill="#757AAE"/>
<path d="M14.2449 20.3984V28.2074C14.6889 27.6409 15.1789 27.1126 15.6995 26.6227V20.3984H14.2449Z" fill="#757AAE"/>
<path d="M20.2165 15.958V23.1546C20.7524 22.9019 21.2117 22.6875 21.6711 22.5038V15.958H20.2165Z" fill="#757AAE"/>
<path d="M26.1881 11.9769V21.8684C26.678 21.9143 27.168 22.0062 27.6427 22.1363V11.9769H26.1881Z" fill="#757AAE"/>
<path d="M28.0714 23.8589C27.2216 23.545 26.3335 23.3689 25.4301 23.3383C25.4225 23.3383 25.4148 23.3383 25.4072 23.3383C25.3536 23.3383 25.2923 23.3383 25.2234 23.3383C24.366 23.3459 23.5162 23.4914 22.697 23.7594C21.7247 24.0809 20.7907 24.5326 19.9332 25.0991C18.892 25.7805 17.912 26.5614 17.024 27.4419C16.4727 27.9778 15.9445 28.552 15.4545 29.1491C15.9828 29.7922 16.5493 30.4047 17.1465 30.9789C20.5686 34.2786 23.4319 34.9676 25.2311 34.9676C29.8399 34.9676 33.821 30.5884 35 29.1415C34.0736 28.016 31.4017 25.0609 28.0714 23.8589ZM25.2311 34.2403C22.4214 34.2403 20.1399 31.9588 20.1399 29.1491C20.1399 26.3394 22.4214 24.0579 25.2311 24.0579C28.0408 24.0656 30.3222 26.3394 30.3222 29.1491C30.3222 31.9588 28.0408 34.2403 25.2311 34.2403Z" fill="#757AAE"/>
<path d="M25.2311 25.5891C23.2635 25.5891 21.6711 27.1816 21.6711 29.1491C21.6711 31.1167 23.2635 32.7091 25.2311 32.7091C27.1986 32.7091 28.7911 31.1167 28.7911 29.1491C28.7911 27.1816 27.1986 25.5891 25.2311 25.5891Z" fill="#757AAE"/>
<path d="M14.2449 30.0984V32.6479H15.6995V31.6832C15.1789 31.1932 14.6889 30.665 14.2449 30.0984Z" fill="#757AAE"/>
</g>
<defs>
<clipPath id="clip0">
<rect width="35" height="35" fill="white" transform="translate(0 0.379639)"/>
</clipPath>
</defs>
</svg>
