<svg width="41" height="29" viewBox="0 0 41 29" fill="none" xmlns="http://www.w3.org/2000/svg">
<path d="M20.6413 2.45605C11.5599 -2.19384 0.642578 4.42434 0.642578 14.7067C0.642578 24.9909 11.5618 31.6063 20.6413 26.9573C29.7233 31.6079 40.6426 24.989 40.6426 14.7067C40.6426 4.42072 29.7206 -2.19321 20.6413 2.45605ZM3.1634 14.7067C3.1634 6.97659 10.841 1.53745 18.1277 4.11302C11.4692 9.62944 11.4744 19.7883 18.1277 25.3004C10.8393 27.8764 3.1634 22.4354 3.1634 14.7067ZM26.8891 25.9393C20.6955 25.9393 15.6565 20.9003 15.6565 14.7067C15.6565 8.51303 20.6955 3.47407 26.8891 3.47407C33.0829 3.47407 38.1218 8.51303 38.1218 14.7067C38.1218 20.9003 33.0829 25.9393 26.8891 25.9393Z" fill="white"/>
</svg>
