<svg width="36" height="36" viewBox="0 0 36 36" fill="none" xmlns="http://www.w3.org/2000/svg">
<g clip-path="url(#clip0)">
<path d="M34.4415 23.7363C34.1469 24.0934 33.7987 24.4149 33.4147 24.6738V28.6738H33.9147C34.9683 28.6738 35.8165 27.8256 35.8254 26.7809V21.9506L34.4415 23.7363Z" fill="#757AAE"/>
<path d="M26.004 15.1917H31.1558C31.3076 15.1917 31.4683 15.1738 31.629 15.1381V10.0309C31.629 8.97738 30.7719 8.13809 29.7272 8.13809H2.73615C1.68258 8.13809 0.834368 8.98631 0.825439 10.0309V30.5042C0.834368 31.5577 1.68258 32.4149 2.73615 32.4238H29.7272C30.7808 32.4149 31.629 31.5577 31.629 30.5042L31.6201 25.3167C31.4683 25.3345 31.3076 25.3524 31.1469 25.3613H26.004C23.2004 25.3524 20.9237 23.0756 20.9237 20.272C20.9237 17.4684 23.2004 15.1917 26.004 15.1917Z" fill="#757AAE"/>
<path d="M33.9147 4.38809H6.92364C5.87007 4.39702 5.02185 5.25416 5.02185 6.30774V6.35238H29.7272C31.7629 6.35238 33.4147 7.99524 33.4147 10.031V13.7631L35.8254 10.656V6.30774C35.8165 5.25416 34.9683 4.39702 33.9147 4.38809Z" fill="#757AAE"/>
<path d="M35.8165 13.5756L34.4326 15.3613C34.0308 15.8792 33.5129 16.2988 32.9236 16.5756C32.3701 16.8435 31.7629 16.9774 31.1469 16.9774H26.004C24.1826 16.9863 22.7094 18.4595 22.7094 20.281C22.7094 22.1024 24.1826 23.5756 26.004 23.5845H31.1558C31.8879 23.5756 32.5844 23.2363 33.0308 22.656L35.8254 19.031L35.8165 13.5756ZM28.004 21.1738H25.8611C25.3701 21.1738 24.9683 20.772 24.9683 20.281C24.9683 19.7899 25.3701 19.3881 25.8611 19.3881H28.004C28.4951 19.3881 28.8968 19.7899 28.8968 20.281C28.8968 20.772 28.4951 21.1738 28.004 21.1738Z" fill="#757AAE"/>
</g>
<defs>
<clipPath id="clip0">
<rect width="35" height="35" fill="white" transform="translate(0.825439 0.905945)"/>
</clipPath>
</defs>
</svg>
